<svg width="36" height="37" viewBox="0 0 36 37" fill="none" xmlns="http://www.w3.org/2000/svg">
<circle cx="18" cy="18.3333" r="17" fill="#393F48" stroke="white" stroke-width="2"/>
<path d="M13.164 19.076H10.608V21.668H9.588V19.076H7.044V18.152H9.588V15.548H10.608V18.152H13.164V19.076ZM16.3394 20.672C16.4194 21.128 16.6034 21.48 16.8914 21.728C17.1874 21.976 17.5834 22.1 18.0794 22.1C18.7434 22.1 19.2314 21.84 19.5434 21.32C19.8634 20.8 20.0154 19.924 19.9994 18.692C19.8314 19.052 19.5514 19.336 19.1594 19.544C18.7674 19.744 18.3314 19.844 17.8514 19.844C17.3154 19.844 16.8354 19.736 16.4114 19.52C15.9954 19.296 15.6674 18.972 15.4274 18.548C15.1874 18.124 15.0674 17.612 15.0674 17.012C15.0674 16.156 15.3154 15.468 15.8114 14.948C16.3074 14.42 17.0114 14.156 17.9234 14.156C19.0434 14.156 19.8274 14.52 20.2754 15.248C20.7314 15.976 20.9594 17.06 20.9594 18.5C20.9594 19.508 20.8674 20.34 20.6834 20.996C20.5074 21.652 20.2034 22.152 19.7714 22.496C19.3474 22.84 18.7634 23.012 18.0194 23.012C17.2034 23.012 16.5674 22.792 16.1114 22.352C15.6554 21.912 15.3954 21.352 15.3314 20.672H16.3394ZM18.0314 18.92C18.5674 18.92 19.0074 18.756 19.3514 18.428C19.6954 18.092 19.8674 17.64 19.8674 17.072C19.8674 16.472 19.6994 15.988 19.3634 15.62C19.0274 15.252 18.5554 15.068 17.9474 15.068C17.3874 15.068 16.9394 15.244 16.6034 15.596C16.2754 15.948 16.1114 16.412 16.1114 16.988C16.1114 17.572 16.2754 18.04 16.6034 18.392C16.9314 18.744 17.4074 18.92 18.0314 18.92ZM23.898 20.672C23.978 21.128 24.162 21.48 24.45 21.728C24.746 21.976 25.142 22.1 25.638 22.1C26.302 22.1 26.79 21.84 27.102 21.32C27.422 20.8 27.574 19.924 27.558 18.692C27.39 19.052 27.11 19.336 26.718 19.544C26.326 19.744 25.89 19.844 25.41 19.844C24.874 19.844 24.394 19.736 23.97 19.52C23.554 19.296 23.226 18.972 22.986 18.548C22.746 18.124 22.626 17.612 22.626 17.012C22.626 16.156 22.874 15.468 23.37 14.948C23.866 14.42 24.57 14.156 25.482 14.156C26.602 14.156 27.386 14.52 27.834 15.248C28.29 15.976 28.518 17.06 28.518 18.5C28.518 19.508 28.426 20.34 28.242 20.996C28.066 21.652 27.762 22.152 27.33 22.496C26.906 22.84 26.322 23.012 25.578 23.012C24.762 23.012 24.126 22.792 23.67 22.352C23.214 21.912 22.954 21.352 22.89 20.672H23.898ZM25.59 18.92C26.126 18.92 26.566 18.756 26.91 18.428C27.254 18.092 27.426 17.64 27.426 17.072C27.426 16.472 27.258 15.988 26.922 15.62C26.586 15.252 26.114 15.068 25.506 15.068C24.946 15.068 24.498 15.244 24.162 15.596C23.834 15.948 23.67 16.412 23.67 16.988C23.67 17.572 23.834 18.04 24.162 18.392C24.49 18.744 24.966 18.92 25.59 18.92Z" fill="white"/>
</svg>
