<svg width="56" height="56" viewBox="0 0 56 56" fill="none" xmlns="http://www.w3.org/2000/svg">
<rect x="42" y="21" width="9.33333" height="9.33333" rx="4.66667" transform="rotate(90 42 21)" stroke="#EF5DA8" stroke-width="2.33333"/>
<rect x="42" y="39.6666" width="9.33333" height="9.33333" rx="4.66667" transform="rotate(90 42 39.6666)" stroke="#EF5DA8" stroke-width="2.33333"/>
<rect x="7" y="16.3334" width="9.33333" height="9.33333" rx="4.66667" transform="rotate(-90 7 16.3334)" stroke="#EF5DA8" stroke-width="2.33333"/>
<path d="M11.6666 18.6666V35C11.6666 39.3997 11.6666 41.5996 13.0335 42.9665C14.4003 44.3333 16.6002 44.3333 21 44.3333H32.6666" stroke="#EF5DA8" stroke-width="2.33333"/>
<path d="M11.6666 16.3334V16.3334C11.6666 20.7331 11.6666 22.933 13.0335 24.2999C13.0335 24.2999 13.0335 24.2999 13.0335 24.2999C14.4003 25.6667 16.6002 25.6667 21 25.6667H32.6666" stroke="#EF5DA8" stroke-width="2.33333"/>
</svg>
