<svg width="32" height="32" viewBox="0 0 32 32" fill="none" xmlns="http://www.w3.org/2000/svg">
<rect width="32" height="32" rx="8" fill="#EEFCF4"/>
<path d="M14.0157 8.76562H9.62505C8.75005 8.76562 8.0313 9.48437 8.0313 10.375C8.00005 11.2344 8.68755 11.9531 9.54692 11.9844H14.0625L14.0157 8.76562Z" fill="#073042"/>
<path d="M23.9688 23.0781H9.625C8.73438 23.0781 8.03125 22.3594 8.03125 21.4688V10.3594C8.03125 11.25 8.75 11.9688 9.625 11.9844H21.6406C21.6406 11.9844 23.9844 11.7812 23.9844 13.5469V23.0781H23.9688Z" fill="#4285F4"/>
<path d="M17.2812 17.3907C17.9219 16.9063 18.0469 16 17.5625 15.375C17.2969 15.0313 16.8906 14.8125 16.4531 14.7969H16.5C16.5781 14.7813 16.6719 14.7813 16.75 14.7969V13.9063C16.75 13.7969 16.7031 13.7032 16.6094 13.6563C16.4688 13.5782 16.2969 13.625 16.2188 13.7657C16.1875 13.8125 16.1719 13.8594 16.1875 13.9219V14.8282C15.4062 14.9532 14.8594 15.6875 14.9844 16.4844V16.5C15.0469 16.875 15.25 17.2188 15.5625 17.4375L12.9219 23.0938H14.6406L15.8594 20.5C16 20.1875 16.375 20.0469 16.7031 20.2032C16.8281 20.2657 16.9375 20.375 17 20.5L18.2656 23.0938H20.0156L17.2812 17.3907ZM16.3906 17.1407C15.8906 17.1407 15.5 16.7344 15.5 16.2344C15.5 15.7344 15.9062 15.3438 16.4062 15.3594C16.6406 15.3594 16.8438 15.4532 17.0156 15.6094C17.375 15.9532 17.375 16.5157 17.0312 16.875C16.875 17.0313 16.6406 17.1407 16.3906 17.1407Z" fill="#3870B2"/>
<path d="M13.0625 9.54688H19.2187V10.6719H13.0625V9.54688Z" fill="white"/>
<path d="M15.9219 15.3438C16.4062 15.3438 16.8125 15.75 16.7969 16.25C16.7969 16.7344 16.3906 17.1407 15.8906 17.125C15.4062 17.125 15.0156 16.7188 15.0156 16.2344C15.0156 16 15.1094 15.7813 15.2812 15.6094C15.4531 15.4375 15.6875 15.3438 15.9219 15.3438ZM16.2656 14.8282V13.8907C16.2656 13.7813 16.2187 13.6875 16.125 13.6407C15.9844 13.5625 15.8125 13.6094 15.7344 13.75C15.7031 13.7969 15.6875 13.8438 15.7031 13.9063V14.8125C14.9219 14.9375 14.375 15.6719 14.5 16.4688V16.4844C14.5625 16.8594 14.7656 17.2032 15.0781 17.4219L11.75 24.5625C11.625 24.8125 11.6406 25.125 11.8125 25.3594C12.0625 25.7188 12.5469 25.8125 12.9062 25.5625C13.0312 25.4844 13.125 25.3594 13.1875 25.2344L15.4062 20.4844C15.5469 20.1719 15.9219 20.0313 16.25 20.1875C16.375 20.25 16.4844 20.3594 16.5469 20.4844L18.8125 25.1875C19 25.5782 19.4687 25.7344 19.8594 25.5469C20.25 25.3594 20.4062 24.8907 20.2187 24.5L16.7969 17.3907C17.4219 16.8907 17.5312 15.9688 17.0312 15.3438C16.8437 15.0938 16.5781 14.9219 16.2656 14.8282Z" fill="#073042"/>
<path d="M18.3125 10.5469C18.0781 10.5469 17.8906 10.375 17.8906 10.1406C17.8906 10.0313 17.9375 9.90625 18.0156 9.82813C18.1875 9.67188 18.4375 9.67188 18.6094 9.82813C18.6875 9.90625 18.7344 10.0156 18.7344 10.125C18.7187 10.3594 18.5469 10.5313 18.3125 10.5469ZM13.6875 10.5313C13.4531 10.5313 13.2656 10.3438 13.2656 10.125C13.2656 10.0156 13.3125 9.90625 13.3906 9.82813C13.5312 9.65625 13.7969 9.625 13.9688 9.76563H13.9844C14.1562 9.92188 14.1719 10.1875 14.0156 10.3594L13.9688 10.4219C13.8906 10.5 13.7812 10.5469 13.6719 10.5469M18.4375 8.01563L19.2656 6.57813C19.3125 6.5 19.2812 6.40625 19.2188 6.34375C19.1406 6.3125 19.0625 6.32812 19.0156 6.39063L18.1562 7.875C16.7812 7.26563 15.2188 7.26563 13.8594 7.875L13.0156 6.40625C12.9844 6.35937 12.9219 6.3125 12.8594 6.3125C12.7969 6.3125 12.7344 6.34375 12.7031 6.40625C12.6719 6.45312 12.6719 6.53125 12.7031 6.57813L13.5469 8.01563C12.0781 8.8125 11.125 10.3125 10.9844 11.9688H21.0156C20.8906 10.2969 19.9219 8.8125 18.4531 8.01563" fill="#3DDC84"/>
<path d="M22.5 15.0781H21.8438C21.8125 15.0937 21.7812 15.125 21.7812 15.1719V25.5625C21.7812 25.6094 21.8125 25.6406 21.8594 25.6406H22.5469C23.3438 25.6406 23.9844 24.9844 23.9844 24.2031V13.625C23.9844 14.4219 23.3438 15.0625 22.5469 15.0625H22.5V15.0781Z" fill="#073042"/>
</svg>
