<svg width="32" height="32" viewBox="0 0 32 32" fill="none" xmlns="http://www.w3.org/2000/svg">
<rect width="32" height="32" rx="8" fill="#F3EBFE"/>
<path d="M8.34146 10.33C8.30443 9.2652 9.13397 8.28333 10.2554 8.28333H21.746C22.8674 8.28333 23.6969 9.2652 23.6599 10.33C23.6243 11.3529 23.6705 12.6779 24.004 13.7582C24.3385 14.8419 24.9026 15.5268 25.8265 15.6149V16.6129C24.9026 16.701 24.3385 17.3858 24.004 18.4696C23.6705 19.5499 23.6243 20.8749 23.6599 21.8977C23.6969 22.9625 22.8674 23.9443 21.746 23.9443H10.2554C9.13397 23.9443 8.30443 22.9624 8.34146 21.8977C8.37709 20.8749 8.33084 19.5499 7.99725 18.4696C7.66287 17.386 7.09725 16.701 6.17334 16.6129V15.6149C7.09725 15.5269 7.66287 14.8419 7.99725 13.7582C8.33084 12.6779 8.37693 11.3529 8.34146 10.33Z" fill="url(#paint0_linear_1704_391)"/>
<g filter="url(#filter0_d_1704_391)">
<path d="M16.4859 20.3338C18.3013 20.3338 19.3953 19.4449 19.3953 17.9787C19.3953 16.8705 18.6147 16.0681 17.4557 15.9411V15.8949C18.3072 15.7564 18.9755 14.9656 18.9755 14.0824C18.9755 12.8241 17.982 12.0044 16.4681 12.0044H13.0619V20.3338H16.4859ZM14.3865 13.0607H16.1488C17.1068 13.0607 17.6508 13.4879 17.6508 14.2614C17.6508 15.0868 17.0181 15.5486 15.8709 15.5486H14.3865V13.0607ZM14.3865 19.2775V16.5356H16.1369C17.3906 16.5356 18.0411 16.9974 18.0411 17.8979C18.0411 18.7984 17.4084 19.2775 16.2138 19.2775H14.3865Z" fill="url(#paint1_linear_1704_391)"/>
<path d="M16.4859 20.3338C18.3013 20.3338 19.3953 19.4449 19.3953 17.9787C19.3953 16.8705 18.6147 16.0681 17.4557 15.9411V15.8949C18.3072 15.7564 18.9755 14.9656 18.9755 14.0824C18.9755 12.8241 17.982 12.0044 16.4681 12.0044H13.0619V20.3338H16.4859ZM14.3865 13.0607H16.1488C17.1068 13.0607 17.6508 13.4879 17.6508 14.2614C17.6508 15.0868 17.0181 15.5486 15.8709 15.5486H14.3865V13.0607ZM14.3865 19.2775V16.5356H16.1369C17.3906 16.5356 18.0411 16.9974 18.0411 17.8979C18.0411 18.7984 17.4084 19.2775 16.2138 19.2775H14.3865Z" stroke="white" stroke-width="0.0383844"/>
</g>
<defs>
<filter id="filter0_d_1704_391" x="12.4286" y="11.5246" width="7.60013" height="9.5961" filterUnits="userSpaceOnUse" color-interpolation-filters="sRGB">
<feFlood flood-opacity="0" result="BackgroundImageFix"/>
<feColorMatrix in="SourceAlpha" type="matrix" values="0 0 0 0 0 0 0 0 0 0 0 0 0 0 0 0 0 0 127 0" result="hardAlpha"/>
<feOffset dy="0.153537"/>
<feGaussianBlur stdDeviation="0.307075"/>
<feColorMatrix type="matrix" values="0 0 0 0 0 0 0 0 0 0 0 0 0 0 0 0 0 0 0.15 0"/>
<feBlend mode="normal" in2="BackgroundImageFix" result="effect1_dropShadow_1704_391"/>
<feBlend mode="normal" in="SourceGraphic" in2="effect1_dropShadow_1704_391" result="shape"/>
</filter>
<linearGradient id="paint0_linear_1704_391" x1="9.09374" y1="8.6978" x2="26.267" y2="22.3301" gradientUnits="userSpaceOnUse">
<stop stop-color="#9013FE"/>
<stop offset="1" stop-color="#6610F2"/>
</linearGradient>
<linearGradient id="paint1_linear_1704_391" x1="13.6611" y1="12.5525" x2="17.4996" y2="19.0445" gradientUnits="userSpaceOnUse">
<stop stop-color="white"/>
<stop offset="1" stop-color="#F1E5FC"/>
</linearGradient>
</defs>
</svg>
