<svg width="32" height="32" viewBox="0 0 32 32" fill="none" xmlns="http://www.w3.org/2000/svg">
<rect width="32" height="32" rx="8" fill="#EFFAFA"/>
<g clip-path="url(#clip0_1704_176)">
<path d="M16.0006 10.0004C13.3339 10.0004 11.6678 11.3332 11.0006 13.9999C12.0003 12.6669 13.1673 12.1671 14.5003 12.5004C15.2614 12.6901 15.8053 13.2419 16.4076 13.8535C17.388 14.8483 18.5226 16.0001 21.0006 16.0001C23.6672 16.0001 25.3334 14.6671 26.0006 11.9997C25.0008 13.3335 23.8339 13.8333 22.5008 13.5001C21.7398 13.3102 21.1965 12.7585 20.5934 12.1469C19.6137 11.1521 18.4794 10.0004 16.0006 10.0004ZM11.0006 16.0001C8.33405 16.0001 6.6678 17.333 6.00061 20.0004C7.0003 18.6666 8.16717 18.1668 9.5003 18.5001C10.2614 18.6899 10.8053 19.2416 11.4076 19.8532C12.388 20.848 13.5226 21.9997 16.0006 21.9997C18.6672 21.9997 20.3334 20.6669 21.0006 18.0002C20.0008 19.3332 18.8339 19.833 17.5008 19.4997C16.7398 19.3101 16.1965 18.7582 15.5934 18.1466C14.6137 17.1518 13.4794 16.0001 11.0006 16.0001Z" fill="#38B2AC"/>
</g>
<defs>
<clipPath id="clip0_1704_176">
<rect width="20" height="20" fill="white" transform="translate(6 6)"/>
</clipPath>
</defs>
</svg>
